<?xml version="1.0" standalone="no"?>
<!DOCTYPE svg PUBLIC "-//W3C//DTD SVG 1.1//EN" "http://www.w3.org/Graphics/SVG/1.1/DTD/svg11.dtd" >
<svg xmlns="http://www.w3.org/2000/svg" xmlns:xlink="http://www.w3.org/1999/xlink" version="1.1">
<metadata>
Created by FontForge 20161003 at Fri Jun  9 13:35:27 2017
 By www-data
Digitized data (c) 1993 The Monotype Corporation. All rights reserved.
</metadata>
<defs>
<font id="andalemonomtstdbold5923fbb9dcb74" horiz-adv-x="600" >
  <font-face 
    font-family="andalemonomtstdbold5923fbb9dcb74"
    font-weight="700"
    font-stretch="normal"
    units-per-em="1000"
    panose-1="2 11 8 9 2 2 4 2 2 3"
    ascent="699"
    descent="-301"
    x-height="515"
    cap-height="689"
    bbox="-26 -208 624 930"
    underline-thickness="64"
    underline-position="-218"
    unicode-range="U+0020-FB02"
  />
<missing-glyph 
d="M62 0v665h475v-665h-475zM138 618l162 -243l161 243h-323zM110 575v-484l40 61l80 120l41 61zM490 575l-162 -242l162 -243v485zM461 48l-161 242l-162 -242h323z" />
    <glyph glyph-name="fi" unicode="fi" 
d="M500 0h-114v421h-159v-421h-115v421h-118v101h118v39q0 98 54 149t157 51q40 0 109 -19l-39 -98q-51 16 -89 16q-44 0 -60 -26q-17 -28 -17 -103v-9h273v-522z" />
    <glyph glyph-name="fl" unicode="fl" 
d="M500 0h-114v645l-13 5q-26 10 -69 10q-44 0 -60 -26q-17 -28 -17 -103v-9l149 1v-102h-149v-421h-115v421h-118v101h118v39q0 98 54 149t157 51q45 0 85 -10l92 -1v-750z" />
    <glyph glyph-name=".notdef" 
d="M62 0v665h475v-665h-475zM138 618l162 -243l161 243h-323zM110 575v-484l40 61l80 120l41 61zM490 575l-162 -242l162 -243v485zM461 48l-161 242l-162 -242h323z" />
    <glyph glyph-name=".notdef" 
d="M62 0v665h475v-665h-475zM138 618l162 -243l161 243h-323zM110 575v-484l40 61l80 120l41 61zM490 575l-162 -242l162 -243v485zM461 48l-161 242l-162 -242h323z" />
    <glyph glyph-name=".null" horiz-adv-x="0" 
 />
    <glyph glyph-name="nonmarkingreturn" horiz-adv-x="333" 
 />
    <glyph glyph-name="space" unicode=" " 
 />
    <glyph glyph-name="space" unicode="&#xa0;" 
 />
    <glyph glyph-name="exclam" unicode="!" 
d="M356 690v-147l-19 -330h-86l-19 328v149h124zM378 67q0 -33 -23 -56q-24 -24 -58 -24q-32 0 -56 24t-24 56t23 55q22 22 57 22t58 -22q23 -23 23 -55z" />
    <glyph glyph-name="quotedbl" unicode="&#x22;" 
d="M450 689v-119l-26 -135h-72l-26 135v119h124zM274 689v-119l-26 -135h-72l-26 135v119h124z" />
    <glyph glyph-name="numbersign" unicode="#" 
d="M570 270v-81h-156l-41 -189h-91l41 189h-109l-41 -189h-91l41 189h-90v81h108l33 151h-141v81h158l41 187h91l-41 -187h109l41 187h91l-41 -187h88v-81h-105l-33 -151h138zM341 270l34 151h-109l-34 -151h109z" />
    <glyph glyph-name="dollar" unicode="$" 
d="M340 750v-62q69 -3 170 -29l-39 -98q-60 25 -131 32v-190l31 -16q80 -41 105 -63q29 -26 43 -55q14 -30 14 -65q0 -80 -50 -132q-49 -52 -143 -67v-90h-71v85q-60 0 -106 11q-44 11 -89 36l38 99q79 -52 157 -52v221l-50 24q-84 40 -114 81q-30 39 -30 94q0 71 52 117
q51 45 142 56v63h71zM340 281v-179q79 22 79 90q0 47 -79 89zM269 438v153q-78 -13 -78 -74q0 -22 16 -39q16 -18 62 -40z" />
    <glyph glyph-name="percent" unicode="%" 
d="M314 539q0 -77 -40 -120q-41 -44 -113 -44t-113 44q-40 43 -40 120q0 75 41 119t112 44q74 0 114 -43q39 -43 39 -120zM454 689h93l-405 -689h-93zM204 539q0 79 -43 79t-43 -79q0 -80 43 -80t43 80zM593 151q0 -77 -40 -120q-41 -44 -113 -44q-71 0 -112 44t-41 120
q0 75 41 119t112 44q75 0 114 -42t39 -121zM483 151q0 79 -43 79t-43 -79q0 -80 43 -80t43 80z" />
    <glyph glyph-name="ampersand" unicode="&#x26;" 
d="M481 154l124 -155h-137l-53 65q-74 -77 -169 -77t-154 56t-59 144q0 56 29 103t94 94q-62 86 -62 152q0 78 50 122t134 44q74 0 120 -36q46 -37 46 -102q0 -57 -31 -101q-30 -45 -105 -95l100 -124q27 61 44 119l8 26h138v-94h-56q-22 -68 -61 -141zM330 562q0 20 -15 34
q-16 13 -38 13q-67 0 -67 -70q0 -39 37 -94q44 30 65 59q18 27 18 58zM354 140l-118 143l-19 23q-65 -50 -65 -117q0 -49 26 -78q25 -30 70 -30q59 0 106 59z" />
    <glyph glyph-name="quotesingle" unicode="'" 
d="M362 689v-119l-26 -135h-72l-26 135v119h124z" />
    <glyph glyph-name="parenleft" unicode="(" 
d="M531 -30v-105l-41 27q-56 36 -119 105q-65 71 -101 154q-35 81 -35 158q0 81 34 159q35 79 100 150q54 60 121 105l41 27v-105l-15 -12q-69 -56 -113 -144q-43 -86 -43 -182t43 -181q44 -88 113 -144z" />
    <glyph glyph-name="parenright" unicode=")" 
d="M371 309q0 -80 -34 -158t-101 -153q-64 -70 -120 -106l-41 -27v105l15 12q69 56 113 144q43 85 43 181t-43 182q-44 88 -113 144l-15 12v105l41 -27q68 -45 123 -106q65 -72 99 -150q33 -78 33 -158z" />
    <glyph glyph-name="asterisk" unicode="*" 
d="M473 459l30 -89l-55 -15l-78 -7l53 -56l34 -42l-86 -52l-33 38l-40 78l-34 -78l-32 -37l-86 51l32 42l55 57l-81 7l-53 15l30 89l56 -16l76 -32l-15 79v51h108v-51l-15 -78l77 31z" />
    <glyph glyph-name="plus" unicode="+" 
d="M551 393v-80h-205v-192h-90v192h-207v80h207v192h90v-192h205z" />
    <glyph glyph-name="comma" unicode="," 
d="M378 59q0 -60 -40 -113q-41 -53 -108 -83v68q55 31 55 58q-27 0 -47 23q-21 22 -21 53t23 54q22 22 54 22q38 0 61 -22q23 -23 23 -60z" />
    <glyph glyph-name="hyphen" unicode="-" 
d="M460 393v-80h-330v80h330z" />
    <glyph glyph-name="hyphen" unicode="&#xad;" 
d="M460 393v-80h-330v80h330z" />
    <glyph glyph-name="period" unicode="." 
d="M377 65q0 -32 -23 -55q-25 -23 -58 -23t-56 23q-24 22 -24 55q0 32 23 55q23 21 57 21q35 0 58 -22q23 -23 23 -54z" />
    <glyph glyph-name="slash" unicode="/" 
d="M390 702h91l-291 -715h-90z" />
    <glyph glyph-name="zero" unicode="0" 
d="M538 344q0 -166 -63 -261q-63 -96 -176 -96t-176 96q-63 95 -63 261q0 170 62 265q62 93 177 93t177 -93q62 -95 62 -265zM418 344q0 146 -28 202q-28 57 -91 57q-61 0 -90 -57q-29 -58 -29 -202q0 -142 29 -200q28 -58 90 -58q63 0 91 57q28 56 28 201z" />
    <glyph glyph-name="one" unicode="1" 
d="M477 95v-95h-357v95h136v484l-102 -38l-47 88l181 64h84v-598h105z" />
    <glyph glyph-name="two" unicode="2" 
d="M515 95v-95h-460v46q0 74 38 132q38 57 155 139q64 45 85 69q25 28 34 53q11 28 11 60q0 45 -36 78q-38 33 -87 33q-55 0 -153 -37l-43 84q108 45 199 45q107 0 172 -55q65 -56 65 -147q0 -67 -49 -131q-51 -68 -167 -146q-94 -64 -110 -128h346z" />
    <glyph glyph-name="three" unicode="3" 
d="M513 206q0 -96 -80 -158q-79 -61 -195 -61q-120 0 -199 47l41 98q31 -24 77 -38q45 -14 83 -14q69 0 112 32q42 32 42 89q0 52 -55 83q-56 32 -133 32h-6l-17 90h18q71 0 126 30t55 79q0 44 -37 69t-96 25q-66 0 -153 -43l-28 92q100 44 183 44q115 0 182 -49t67 -136
q0 -55 -45 -96q-47 -43 -104 -53v-2q69 -12 115 -55q47 -44 47 -105z" />
    <glyph glyph-name="four" unicode="4" 
d="M552 244v-100h-103v-144h-116v144h-303v82l298 463h121v-445h103zM139 243h194v301z" />
    <glyph glyph-name="five" unicode="5" 
d="M514 226q0 -97 -79 -167q-79 -72 -181 -72q-126 0 -203 45l40 98q76 -50 165 -50q58 0 98 43t40 105q0 56 -37 93t-90 37q-49 0 -92 -18l-80 29l48 320h355v-95h-271l-22 -148q28 6 67 6q107 0 174 -64q68 -65 68 -162z" />
    <glyph glyph-name="six" unicode="6" 
d="M534 218q0 -96 -66 -164q-67 -67 -166 -67q-113 0 -178 101t-65 256q0 160 68 260q68 98 184 98q102 0 195 -38l-35 -96q-83 39 -153 39q-67 0 -105 -62q-37 -61 -37 -158q68 38 124 38q106 0 171 -56q63 -56 63 -151zM413 216q0 50 -32 85q-32 33 -82 33q-33 0 -63 -13
q-33 -14 -52 -31q5 -88 34 -148q29 -62 78 -62q51 0 84 41t33 95z" />
    <glyph glyph-name="seven" unicode="7" 
d="M545 689v-80q-125 -122 -195 -289q-72 -170 -72 -320h-118q0 130 72 306q70 173 179 288h-349v95h483z" />
    <glyph glyph-name="eight" unicode="8" 
d="M518 191q0 -98 -64 -150q-64 -54 -178 -54q-107 0 -172 55q-66 55 -66 146q0 94 110 163l27 17l-8 4q-112 56 -112 158q0 75 61 124q61 48 161 48q98 0 159 -46t61 -117q0 -88 -118 -155l-10 -7l25 -14q124 -69 124 -172zM382 529q0 35 -32 58q-31 22 -75 22t-72 -22
t-28 -59q0 -45 102 -100q105 65 105 101zM393 188q0 52 -104 111l-23 13l-25 -16q-83 -53 -83 -108q0 -50 34 -78q35 -29 85 -29q53 0 85 29q31 28 31 78z" />
    <glyph glyph-name="nine" unicode="9" 
d="M533 345q0 -162 -67 -259q-68 -99 -185 -99q-109 0 -194 39l35 96q82 -42 152 -42q68 0 105 63q37 61 37 159q-67 -38 -124 -38q-105 0 -169 58q-65 59 -65 149q0 97 66 164t166 67q117 0 180 -95q63 -96 63 -262zM408 401q-1 84 -31 148q-30 62 -81 62t-84 -41
q-33 -42 -33 -97q0 -49 33 -83q33 -35 81 -35q30 0 63 14q35 15 52 32z" />
    <glyph glyph-name="colon" unicode=":" 
d="M377 446q0 -32 -23 -55q-24 -24 -58 -24q-33 0 -56 23q-24 22 -24 56q0 31 23 54q23 21 57 21q35 0 58 -22q23 -23 23 -53zM377 65q0 -32 -23 -55q-25 -23 -58 -23t-56 23q-24 22 -24 55q0 32 23 55q23 21 57 21q35 0 58 -22q23 -23 23 -54z" />
    <glyph glyph-name="semicolon" unicode=";" 
d="M377 446q0 -32 -23 -55q-25 -23 -58 -23q-34 0 -57 23t-23 55q0 31 23 54q23 21 57 21q36 0 58 -21q23 -21 23 -54zM378 59q0 -60 -40 -113q-41 -53 -108 -83v68q55 31 55 58q-27 0 -47 23q-21 22 -21 53t23 54q22 22 54 22q38 0 61 -22q23 -23 23 -60z" />
    <glyph glyph-name="semicolon" unicode="&#x37e;" 
d="M377 446q0 -32 -23 -55q-25 -23 -58 -23q-34 0 -57 23t-23 55q0 31 23 54q23 21 57 21q36 0 58 -21q23 -21 23 -54zM378 59q0 -60 -40 -113q-41 -53 -108 -83v68q55 31 55 58q-27 0 -47 23q-21 22 -21 53t23 54q22 22 54 22q38 0 61 -22q23 -23 23 -60z" />
    <glyph glyph-name="less" unicode="&#x3c;" 
d="M493 190v-85l-405 213v71l405 211v-85l-313 -164z" />
    <glyph glyph-name="equal" unicode="=" 
d="M551 478v-80h-502v80h502zM551 308v-80h-502v80h502z" />
    <glyph glyph-name="greater" unicode="&#x3e;" 
d="M512 389v-71l-405 -213v85l313 161l-313 164v85z" />
    <glyph glyph-name="question" unicode="?" 
d="M485 528q0 -87 -120 -183l-38 -30q-32 -25 -32 -75v-45h-107v46q0 90 61 139l50 41q68 55 68 104q0 40 -26 60t-74 20q-53 0 -105 -24l-33 -15l-38 93l37 15q71 28 144 28q100 0 157 -45q56 -45 56 -129zM331 67q0 -33 -23 -56q-24 -24 -58 -24q-32 0 -56 24t-24 56
t23 55q23 21 57 21q35 0 58 -22q23 -23 23 -54z" />
    <glyph glyph-name="at" unicode="@" 
d="M529 501v-321h-93v19q-8 -11 -22 -18q-15 -7 -28 -7q-67 0 -111 43q-45 43 -45 110q0 63 57 108q56 46 146 62v11q0 50 -33 84q-35 35 -81 35q-70 0 -111 -77t-41 -206q0 -118 43 -197q44 -81 110 -81q37 0 73 14q34 14 80 51v-92q-23 -21 -67 -36q-44 -16 -86 -16
q-114 0 -182 99q-68 98 -68 258q0 167 66 263q66 95 183 95q94 0 152 -58t58 -143zM433 282v139q-111 -29 -111 -96q0 -26 23 -49q22 -22 46 -22q14 0 26 9q11 7 16 19z" />
    <glyph glyph-name="A" unicode="A" 
d="M404 207h-205l-58 -207h-119l221 689h119l217 -689h-116zM226 301h151l-75 265z" />
    <glyph glyph-name="B" unicode="B" 
d="M537 210q0 -92 -77 -151q-79 -59 -190 -59h-178v689h168q117 0 185 -44q67 -45 67 -128q0 -47 -35 -85q-35 -36 -87 -50v-3q56 -9 102 -58q45 -49 45 -111zM385 516q0 37 -36 58t-93 21h-48v-170h44q61 0 97 24t36 67zM415 213q0 55 -46 86q-47 32 -117 32h-44v-237h56
q70 0 110 31q41 32 41 88z" />
    <glyph glyph-name="C" unicode="C" 
d="M536 635l-58 -83q-77 56 -144 56q-71 0 -105 -64q-35 -65 -35 -200q0 -263 140 -263q26 0 72 11q45 11 76 26l39 -84q-86 -47 -187 -47q-128 0 -194 91q-66 92 -66 266q0 173 67 265q67 93 193 93q65 0 107 -15q43 -14 95 -52z" />
    <glyph glyph-name="D" unicode="D" 
d="M539 344q0 -148 -78 -246q-80 -98 -204 -98h-173v689h173q130 0 206 -94t76 -251zM420 344q0 122 -41 187q-42 64 -122 64h-58v-501h58q80 0 122 64q41 65 41 186z" />
    <glyph glyph-name="E" unicode="E" 
d="M491 99v-99h-400v689h397v-99h-282v-172h271v-94h-271v-225h285z" />
    <glyph glyph-name="F" unicode="F" 
d="M514 689v-99h-290v-186h255v-94h-255v-310h-115v689h405z" />
    <glyph glyph-name="G" unicode="G" 
d="M544 341v-282l-9 -6q-101 -66 -197 -66q-264 0 -264 357q0 172 68 266q68 92 197 92q60 0 105 -15t93 -52l-58 -83q-77 56 -142 56q-73 0 -108 -62q-35 -64 -35 -202q0 -129 37 -196q36 -67 107 -67q56 0 91 23v143h-102v94h217z" />
    <glyph glyph-name="H" unicode="H" 
d="M520 689v-689h-115v337h-206v-337h-115v689h115v-258h206v258h115z" />
    <glyph glyph-name="I" unicode="I" 
d="M482 94v-94h-349v94h119v501h-119v94h349v-94h-114v-501h114z" />
    <glyph glyph-name="J" unicode="J" 
d="M394 598v-407q0 -204 -198 -204q-38 0 -86 17q-47 17 -76 41l52 91q31 -23 64 -39q32 -16 57 -16q71 0 71 116v398h-138v94h355v-91h-101z" />
    <glyph glyph-name="K" unicode="K" 
d="M337 361l254 -361h-133l-249 362l250 327h125zM209 689v-689h-115v689h115z" />
    <glyph glyph-name="L" unicode="L" 
d="M496 94v-94h-376v689h115v-595h261z" />
    <glyph glyph-name="M" unicode="M" 
d="M540 689v-689h-112v406l6 140l-21 -84l-70 -161h-75l-77 163l-23 81l7 -142v-403h-111v689h124l115 -250l108 250h129z" />
    <glyph glyph-name="N" unicode="N" 
d="M530 689v-689h-110l-215 435l-31 79l11 -159v-355h-111v689h113l223 -452l22 -62l-13 134v380h111z" />
    <glyph glyph-name="O" unicode="O" 
d="M538 344q0 -166 -63 -261q-63 -96 -176 -96t-176 96q-63 95 -63 261q0 170 62 265q62 93 177 93t177 -93q62 -95 62 -265zM418 344q0 151 -28 207q-28 57 -91 57q-62 0 -91 -56q-28 -56 -28 -208q0 -148 28 -205q28 -58 91 -58t91 57q28 55 28 206z" />
    <glyph glyph-name="P" unicode="P" 
d="M531 493q0 -59 -37 -106q-39 -49 -104 -77q-69 -29 -134 -29h-41v-281h-115v689h165q116 0 192 -53q74 -53 74 -143zM409 492q0 46 -42 75q-41 28 -102 28h-50v-220h46q57 0 103 34q45 33 45 83z" />
    <glyph glyph-name="Q" unicode="Q" 
d="M568 -35l31 -12l-39 -99l-16 6q-14 5 -44 23q-62 37 -142 115q-28 -11 -59 -11q-113 0 -176 95q-63 94 -63 260q0 171 62 266q61 94 177 94t177 -94q62 -95 62 -266q0 -213 -100 -303q81 -55 130 -74zM418 342q0 151 -28 208t-91 57t-91 -57q-28 -56 -28 -208
q0 -148 28 -203q28 -57 91 -57q64 0 92 55q27 55 27 205z" />
    <glyph glyph-name="R" unicode="R" 
d="M377 325l220 -325h-132l-194 292h-72v-292h-115v689h171q112 0 183 -50q69 -49 69 -137q0 -113 -130 -177zM386 501q0 43 -40 68q-41 26 -95 26h-52v-209h48q58 0 99 32q40 31 40 83z" />
    <glyph glyph-name="S" unicode="S" 
d="M533 196q0 -97 -71 -153q-73 -56 -190 -56q-62 0 -108 11q-45 10 -90 36l38 99q79 -52 156 -52q67 0 109 27t42 76q0 28 -26 56q-28 28 -98 62l-76 37q-80 39 -111 82q-33 43 -33 101q0 82 66 131q65 49 174 49q83 0 195 -30l-39 -98q-30 13 -79 24q-46 10 -76 10
q-59 0 -91 -22q-34 -22 -34 -61q0 -23 20 -45q18 -21 75 -50l66 -33q80 -40 116 -71q32 -28 49 -60q16 -31 16 -70z" />
    <glyph glyph-name="T" unicode="T" 
d="M571 689v-94h-212v-595h-115v595h-213v94h540z" />
    <glyph glyph-name="U" unicode="U" 
d="M520 689v-449q0 -124 -55 -188q-56 -65 -163 -65q-104 0 -161 67q-57 68 -57 184v451h115v-451q0 -70 27 -114q27 -43 76 -43q52 0 78 38q25 37 25 121v449h115z" />
    <glyph glyph-name="V" unicode="V" 
d="M467 689h120l-229 -689h-119l-220 689h121l151 -502l11 -64l12 65z" />
    <glyph glyph-name="W" unicode="W" 
d="M449 689h112l-52 -689h-91l-107 279l-11 54l-11 -55l-107 -278h-94l-49 689h115l19 -404l3 -88l21 87l56 148h92l56 -146l23 -91l4 97z" />
    <glyph glyph-name="X" unicode="X" 
d="M366 363l214 -363h-139l-141 261l-148 -261h-134l222 356l-214 333h130l150 -229l148 229h123z" />
    <glyph glyph-name="Y" unicode="Y" 
d="M467 689h124l-232 -397v-292h-116v292l-232 397h125l169 -293z" />
    <glyph glyph-name="Z" unicode="Z" 
d="M528 689v-63l-324 -532h318v-94h-453v62l323 533h-309v94h445z" />
    <glyph glyph-name="bracketleft" unicode="[" 
d="M465 -38v-94h-230v882h230v-94h-114v-694h114z" />
    <glyph glyph-name="backslash" unicode="\" 
d="M390 -13h90l-290 715h-91z" />
    <glyph glyph-name="bracketright" unicode="]" 
d="M351 750v-880h-235v94h119v692h-119v94h235z" />
    <glyph glyph-name="asciicircum" unicode="^" 
d="M262 750h71l212 -404h-87l-158 312l-164 -313h-84z" />
    <glyph glyph-name="underscore" unicode="_" 
d="M624 -128v-80h-650v80h650z" />
    <glyph glyph-name="grave" unicode="`" 
d="M314 731l85 -147h-96l-142 147h153z" />
    <glyph glyph-name="a" unicode="a" 
d="M518 329v-329h-112v51q-61 -64 -149 -64q-77 0 -127 41t-50 113q0 75 68 119q70 45 182 51l74 4v4q0 51 -32 83t-78 32q-72 0 -151 -43l-40 83q42 23 104 38q63 15 111 15q96 0 148 -51t52 -147zM404 147v85l-58 -3q-148 -7 -148 -88q0 -26 22 -44t51 -18q67 0 133 68z
" />
    <glyph glyph-name="b" unicode="b" 
d="M550 267q0 -120 -59 -200t-155 -80q-83 0 -140 62v-49h-112v750h114v-275q59 52 144 52q98 0 153 -70t55 -190zM431 255q0 87 -28 133q-29 47 -84 47q-67 0 -121 -67v-199q20 -41 51 -65q31 -25 67 -25q52 0 84 50q31 49 31 126z" />
    <glyph glyph-name="c" unicode="c" 
d="M497 113l18 -92q-84 -34 -170 -34q-113 0 -188 78t-75 192q0 117 74 194q73 76 187 76q93 0 170 -33l-33 -93q-71 33 -136 33q-64 0 -105 -50q-40 -50 -40 -127q0 -71 41 -124t105 -53q40 0 69 7q30 6 83 26z" />
    <glyph glyph-name="d" unicode="d" 
d="M521 750v-750h-112v49q-57 -62 -140 -62q-99 0 -156 77q-58 76 -58 203q0 114 58 187q57 73 150 73q85 0 144 -52v275h114zM407 176v192q-55 67 -121 67q-55 0 -84 -47q-30 -48 -30 -133q0 -75 32 -125q32 -51 85 -51q72 0 118 97z" />
    <glyph glyph-name="e" unicode="e" 
d="M524 265v-30h-346v-3q0 -60 42 -106q42 -47 103 -47q75 0 162 34l19 -93q-90 -33 -181 -33q-116 0 -189 76q-74 76 -74 191q0 120 69 196q69 77 177 77q56 0 108 -34q54 -35 82 -93q28 -57 28 -135zM187 320h215q-8 52 -33 84q-25 31 -64 31q-84 0 -118 -115z" />
    <glyph glyph-name="f" unicode="f" 
d="M537 742l-39 -90q-48 16 -89 16q-42 0 -60 -29q-18 -30 -18 -108v-16h183v-92h-183v-423h-114v423h-128v92h128v46q0 98 54 149t157 51q40 0 109 -19z" />
    <glyph glyph-name="g" unicode="g" 
d="M560 -10q0 -58 -36 -101q-36 -44 -104 -71q-69 -26 -135 -26q-107 0 -166 33q-59 35 -59 99q0 67 70 110q-24 9 -40 29q-16 19 -16 44q0 27 22 55q19 26 56 50q-35 23 -54 61q-20 40 -20 79q0 75 59 125t145 50q76 0 117 -22l152 22v-110l-83 14q17 -42 17 -79
q0 -74 -58 -125q-59 -51 -145 -51q-31 0 -53 2q-17 -5 -28 -13q-13 -9 -13 -18q0 -27 44 -25l96 2l95 2q54 1 97 -38q40 -39 40 -98zM370 352q0 37 -26 65q-26 27 -62 27t-62 -27q-27 -27 -27 -65q0 -39 27 -66q26 -27 62 -27t62 27q26 28 26 66zM451 -30q0 23 -13 36
t-37 13l-87 -2l-94 -3q-44 -27 -44 -75q0 -27 35 -47q34 -19 74 -19q65 0 115 28q51 29 51 69z" />
    <glyph glyph-name="h" unicode="h" 
d="M520 345v-345h-115v322q0 64 -15 88t-55 24q-64 0 -138 -74v-360h-113v750h114v-286q78 63 160 63q88 0 125 -43t37 -139z" />
    <glyph glyph-name="i" unicode="i" 
d="M388 638q0 -27 -19 -46t-48 -19q-27 0 -46 19q-20 20 -20 46q0 25 20 45q19 19 46 19q29 0 48 -18q19 -19 19 -46zM377 515v-515h-114v423h-132v92h246z" />
    <glyph glyph-name="j" unicode="j" 
d="M405 638q0 -28 -19 -46q-19 -19 -48 -19q-27 0 -46 19q-20 20 -20 46q0 25 20 45q19 19 46 19q28 0 48 -18q19 -19 19 -46zM394 515v-522q0 -99 -52 -150t-154 -51q-20 0 -49 7q-36 9 -54 17l38 89q48 -21 81 -21q43 0 60 29q17 28 17 110v400h-150v92h263z" />
    <glyph glyph-name="k" unicode="k" 
d="M418 515h134l-197 -223l201 -292h-139l-187 289zM230 750v-750h-114v750h114z" />
    <glyph glyph-name="l" unicode="l" 
d="M469 92v-92h-246v658h-125v92h239v-658h132z" />
    <glyph glyph-name="m" unicode="m" 
d="M553 365v-365h-105v313q0 79 -5 102q-6 21 -26 21q-16 0 -34 -21q-19 -21 -30 -47v-368h-103v302q0 94 -6 114t-26 20q-13 0 -32 -22q-21 -24 -31 -46v-368h-105v515h102v-44q47 56 94 56q39 0 58 -15t35 -54q49 69 106 69q59 0 84 -37q24 -38 24 -125z" />
    <glyph glyph-name="n" unicode="n" 
d="M520 347v-347h-113v301q0 77 -15 104q-15 29 -57 29q-63 0 -137 -74v-360h-114v515h112v-53q83 65 162 65q87 0 124 -43q38 -44 38 -137z" />
    <glyph glyph-name="o" unicode="o" 
d="M551 257q0 -113 -71 -192q-70 -78 -177 -78t-178 78q-71 79 -71 192q0 118 70 194q69 76 179 76t179 -76q69 -77 69 -194zM431 257q0 85 -32 132q-33 46 -96 46t-96 -46q-33 -47 -33 -132q0 -84 34 -130q33 -47 95 -47t95 46q33 47 33 131z" />
    <glyph glyph-name="p" unicode="p" 
d="M550 267q0 -120 -59 -200t-155 -80q-82 0 -138 62v-257h-114v723h112v-40q59 52 146 52q98 0 153 -70t55 -190zM431 255q0 87 -28 133q-29 47 -84 47q-66 0 -120 -67v-192q46 -97 117 -97q52 0 84 50q31 49 31 126z" />
    <glyph glyph-name="q" unicode="q" 
d="M521 515v-723h-115v247q-59 -52 -143 -52q-93 0 -150 74q-58 73 -58 186q0 127 58 203q57 77 156 77q84 0 140 -62v50h112zM407 146v192q-46 97 -118 97q-51 0 -83 -50q-31 -49 -31 -126q0 -86 29 -133t82 -47q66 0 121 67z" />
    <glyph glyph-name="r" unicode="r" 
d="M532 502l-47 -106q-66 28 -114 28q-31 0 -62 -19t-54 -51v-354h-116v510h116v-48q68 65 138 65q57 0 139 -25z" />
    <glyph glyph-name="s" unicode="s" 
d="M510 152q0 -74 -68 -119q-68 -46 -168 -46q-103 0 -178 33l24 92q77 -37 151 -37q48 0 85 19q37 18 37 47q0 25 -21 42q-24 18 -88 35l-69 19q-57 15 -88 52q-33 37 -33 86q0 67 66 110q64 42 164 42q73 0 160 -23l-25 -92q-81 27 -134 27q-51 0 -83 -15t-32 -41
q0 -19 15 -33q13 -13 52 -24l79 -21q82 -23 118 -58q36 -36 36 -95z" />
    <glyph glyph-name="t" unicode="t" 
d="M493 114l21 -81l-70 -25q-56 -20 -102 -20q-156 0 -156 155v280h-92v92h92v133h114v-133h173v-92h-173v-267q0 -35 16 -55q16 -21 40 -21q34 0 64 10z" />
    <glyph glyph-name="u" unicode="u" 
d="M521 515v-515h-112v52q-85 -65 -162 -65q-87 0 -124 43q-38 44 -38 137v348h114v-302q0 -75 15 -104t56 -29q60 0 137 75v360h114z" />
    <glyph glyph-name="v" unicode="v" 
d="M433 515h117l-201 -515h-90l-223 515h121l140 -328l10 -53l9 54z" />
    <glyph glyph-name="w" unicode="w" 
d="M453 515h113l-85 -515h-80l-92 213l-13 49l-15 -50l-92 -212h-84l-67 515h110l32 -277l2 -78l13 76l54 121h100l46 -113l14 -83l3 83z" />
    <glyph glyph-name="x" unicode="x" 
d="M428 515h130l-195 -252l194 -263h-135l-125 177l-131 -177h-130l195 261l-195 254h136l127 -171z" />
    <glyph glyph-name="y" unicode="y" 
d="M432 515h117l-192 -497q-46 -119 -93 -168q-55 -58 -119 -58q-42 0 -106 21l39 90q48 -19 74 -19q56 0 100 131l-217 500h120l150 -352z" />
    <glyph glyph-name="z" unicode="z" 
d="M510 92v-92h-431v53l273 370h-266v92h424v-49l-275 -374h275z" />
    <glyph glyph-name="braceleft" unicode="{" 
d="M467 -114v-94h-59q-82 0 -117 42q-36 44 -36 148v84q0 81 -23 110q-22 27 -77 27v116q55 0 77 28q23 28 23 109v84q0 104 36 148q35 42 117 42h59v-94h-35q-33 0 -47 -17q-14 -19 -14 -78v-69q0 -87 -18 -135q-19 -49 -63 -76q45 -28 63 -75q18 -46 18 -136v-69
q0 -59 14 -78q14 -17 47 -17h35z" />
    <glyph glyph-name="bar" unicode="|" 
d="M346 750v-958h-90v958h90z" />
    <glyph glyph-name="braceright" unicode="}" 
d="M443 319v-116q-56 0 -78 -28q-24 -29 -24 -109v-84q0 -106 -35 -149q-35 -41 -116 -41h-59v94h35q34 0 48 17q13 17 13 78v69q0 89 19 136q18 48 61 75q-43 27 -61 75q-19 47 -19 136v69q0 61 -13 78q-14 17 -48 17h-35v94h59q82 0 116 -42q35 -43 35 -148v-84
q0 -80 24 -108q23 -29 78 -29z" />
    <glyph glyph-name="asciitilde" unicode="~" 
d="M580 430v-93q-89 -53 -166 -53q-43 0 -133 29q-82 25 -114 25q-25 0 -56 -11q-30 -10 -106 -51v91q91 53 169 53q47 0 134 -28q74 -25 112 -25q49 0 160 63z" />
    <glyph glyph-name="exclamdown" unicode="&#xa1;" 
d="M231 -176v147l19 330h86l19 -328v-149h-124zM209 447q0 33 24 57q25 23 58 23q34 0 57 -23t23 -57q0 -32 -23 -55q-23 -22 -57 -22q-36 0 -58 22q-24 22 -24 55z" />
    <glyph glyph-name="cent" unicode="&#xa2;" 
d="M297 -101v92q-95 17 -155 92q-60 73 -60 174q0 103 60 177q57 72 155 89v87h71v-84q80 -5 145 -32l-31 -97q-52 27 -114 35v-350q43 2 128 36l19 -97q-77 -29 -147 -33v-89h-71zM297 89v336q-47 -17 -72 -62q-26 -47 -26 -106q0 -54 27 -103q28 -49 71 -65z" />
    <glyph glyph-name="sterling" unicode="&#xa3;" 
d="M100 82l52 211h-76v80h96l4 17q36 156 102 239q58 73 142 73q63 0 126 -20l-51 -86q-38 12 -73 12q-45 0 -80 -50q-38 -57 -67 -173l-3 -12h134v-80h-154l-48 -198q30 2 44 2q58 0 99 -7q53 -8 72 -8q60 0 121 31v-95q-62 -22 -125 -22q-35 0 -84 7q-46 7 -86 7
q-84 0 -182 -19v85z" />
    <glyph glyph-name="currency" unicode="&#xa4;" 
d="M539 175q-11 -10 -30 -29.5t-25 -26.5l-68 68q-51 -36 -116 -36q-66 0 -115 36q-11 -12 -34 -34.5t-35 -33.5q-36 38 -54 56q11 10 34 32t35 33q-36 56 -36 114q0 62 36 114l-69 66q18 18 54 56q12 -12 35 -34.5t34 -33.5q52 36 115 36q66 0 116 -36q10 10 21 21.5t25 25
t22 21.5q6 -6 25 -26t30 -30l-69 -66q36 -52 36 -114q0 -59 -36 -114q11 -11 34 -32.5t35 -32.5zM428 355q0 54 -38.5 90t-88.5 36q-54 0 -91.5 -37t-37.5 -89t38 -90t90 -38q53 0 90.5 37.5t37.5 90.5z" />
    <glyph glyph-name="yen" unicode="&#xa5;" 
d="M551 265h-192v-59h192v-80h-192v-126h-116v126h-194v80h194v59h-194v80h163l-201 344h125l169 -293l162 293h124l-201 -344h161v-80z" />
    <glyph glyph-name="brokenbar" unicode="&#xa6;" 
d="M256 379v371h90v-371h-90zM346 167v-375h-90v375h90z" />
    <glyph glyph-name="section" unicode="&#xa7;" 
d="M117 416q-42 40 -42 106q0 82 66 131q65 49 174 49q83 0 195 -30l-39 -98q-30 13 -79 24q-46 10 -76 10q-59 0 -91 -22q-34 -22 -34 -61q0 -24 19 -42q22 -20 74 -40l77 -30q91 -36 132 -83q40 -47 40 -114t-35 -116q35 -38 35 -99q0 -98 -71 -154q-71 -55 -190 -55
q-63 0 -109 11q-44 11 -89 36l38 99q79 -52 156 -52q67 0 109 27t42 76q0 29 -24 51q-28 24 -96 52l-80 32q-144 57 -144 183q0 65 42 109zM360 183l49 -23q10 20 10 44q0 37 -32 71q-32 32 -87 53l-88 34q-21 -21 -21 -52q0 -54 95 -95z" />
    <glyph glyph-name="dieresis" unicode="&#xa8;" 
d="M459 641q0 -21 -20 -39q-19 -18 -46 -18t-46 18q-21 18 -21 39t21 39q20 17 46 17t46 -17q20 -18 20 -39zM273 641q0 -21 -20 -39q-19 -18 -46 -18t-46 18q-21 18 -21 39t21 39q20 17 46 17t46 -17q20 -18 20 -39z" />
    <glyph glyph-name="copyright" unicode="&#xa9;" 
d="M385 409l-16 -45q-28 23 -62 23q-59 0 -59 -111q0 -52 16 -81q16 -30 43 -30q37 0 62 13l11 -45q-32 -17 -73 -17q-55 0 -89 45q-35 46 -35 115q0 68 35 114q35 44 89 44q49 0 78 -25zM536 283q0 103 -67 170q-68 68 -169 68t-169 -68q-67 -67 -67 -170q0 -102 68 -172
q68 -69 168 -69q101 0 169 69q67 68 67 172zM595 283q0 -123 -86 -209q-87 -87 -209 -87q-124 0 -209 87q-86 86 -86 209q0 122 86 208t209 86q121 0 209 -86q86 -86 86 -208z" />
    <glyph glyph-name="ordfeminine" unicode="&#xaa;" 
d="M440 575v-196h-105v20q-41 -27 -80 -27q-49 0 -80 25q-32 24 -32 67q0 50 48 78q46 27 130 27h12q0 59 -45 59q-51 0 -98 -26l-22 66q25 14 65 25q37 9 69 9q62 0 100 -34q38 -35 38 -93zM334 471v35h-14q-68 0 -68 -39q0 -8 8 -13t17 -5q36 0 57 22z" />
    <glyph glyph-name="guillemotleft" unicode="&#xab;" 
d="M307 26l-242 219v59l242 217v-90l-140 -159l140 -154v-92zM538 26l-242 219v59l242 217v-90l-140 -159l140 -154v-92z" />
    <glyph glyph-name="logicalnot" unicode="&#xac;" 
d="M551 483v-240h-90v160h-412v80h502z" />
    <glyph glyph-name="registered" unicode="&#xae;" 
d="M536 283q0 103 -67 170q-68 68 -169 68t-169 -68q-67 -67 -67 -170q0 -102 68 -172q68 -69 168 -69q101 0 169 69q67 68 67 172zM595 283q0 -123 -86 -209q-87 -87 -209 -87q-124 0 -209 87q-86 86 -86 209q0 122 86 208t209 86q121 0 209 -86q86 -86 86 -208zM329 258
l106 -143h-71l-93 131h-14v-131h-62v319h87q51 0 86 -23q34 -24 34 -64q0 -32 -21 -56q-23 -24 -52 -33zM337 343q0 44 -57 44h-23v-95h20q60 0 60 51z" />
    <glyph glyph-name="macron" unicode="&#xaf;" 
d="M486 690v-73h-371v73h371z" />
    <glyph glyph-name="macron" unicode="&#x2c9;" 
d="M486 690v-73h-371v73h371z" />
    <glyph glyph-name="degree" unicode="&#xb0;" 
d="M454 609q0 -58 -46 -98q-46 -42 -109 -42q-62 0 -109 42q-46 42 -46 98q0 57 46 99q46 41 109 41q62 0 109 -41q46 -42 46 -99zM367 609q0 23 -21 44q-22 20 -47 20q-26 0 -46 -20q-21 -21 -21 -44q0 -25 21 -44q21 -21 46 -21t47 21q21 19 21 44z" />
    <glyph glyph-name="plusminus" unicode="&#xb1;" 
d="M551 80v-80h-502v80h502zM551 393v-80h-205v-192h-90v192h-207v80h207v192h90v-192h205z" />
    <glyph glyph-name="twosuperior" unicode="&#xb2;" 
d="M412 323h-247v24q0 40 16 68t61 61q46 34 61 56q16 24 16 51q0 44 -58 44q-12 0 -35 -5q-19 -4 -33 -11l-23 67q51 24 97 24q70 0 109 -30q38 -29 38 -88q0 -37 -23 -72q-21 -33 -78 -74q-34 -25 -37 -40h136v-75z" />
    <glyph glyph-name="threesuperior" unicode="&#xb3;" 
d="M425 445q0 -62 -50 -97t-128 -35q-59 0 -109 30l25 72q38 -28 86 -28q37 0 58 15t21 40q0 27 -20 38q-21 12 -68 12h-15l-7 65h19q83 0 83 40q0 30 -60 30q-38 0 -88 -25l-15 75q57 25 104 25q77 0 116 -26q40 -27 40 -77q0 -25 -21 -46q-22 -22 -48 -26q34 -7 56 -29
q21 -21 21 -53z" />
    <glyph glyph-name="acute" unicode="&#xb4;" 
d="M297 731h153l-142 -147h-96z" />
    <glyph glyph-name="mu" unicode="&#xb5;" 
d="M202 -7v-201h-117v723h114v-302q0 -75 15 -104t56 -29q60 0 137 75v360h114v-515h-112v52q-85 -65 -162 -65q-30 0 -45 6z" />
    <glyph glyph-name="mu" unicode="&#x3bc;" 
d="M202 -7v-201h-117v723h114v-302q0 -75 15 -104t56 -29q60 0 137 75v360h114v-515h-112v52q-85 -65 -162 -65q-30 0 -45 6z" />
    <glyph glyph-name="paragraph" unicode="&#xb6;" 
d="M550 689v-82h-70v-814h-90v814h-83v-814h-89v461q-90 17 -149 77q-60 60 -60 143q0 98 72 157q71 58 194 58h275z" />
    <glyph glyph-name="periodcentered" unicode="&#xb7;" 
d="M377 451q0 -32 -23 -55q-25 -23 -58 -23t-56 23q-24 22 -24 55q0 32 23 55q23 21 57 21q35 0 58 -22q23 -23 23 -54z" />
    <glyph glyph-name="periodcentered" unicode="&#x2219;" 
d="M377 451q0 -32 -23 -55q-25 -23 -58 -23t-56 23q-24 22 -24 55q0 32 23 55q23 21 57 21q35 0 58 -22q23 -23 23 -54z" />
    <glyph glyph-name="cedilla" unicode="&#xb8;" 
d="M394 -80q0 -46 -44 -67q-45 -21 -151 -21v66q99 0 99 24q0 9 -23 15q-21 7 -53 7l34 64h89l-11 -26q27 -5 44 -23q16 -16 16 -39z" />
    <glyph glyph-name="onesuperior" unicode="&#xb9;" 
d="M267 387v224l-52 -30l-25 74l78 41h94v-309h48v-77h-199v77h56z" />
    <glyph glyph-name="ordmasculine" unicode="&#xba;" 
d="M467 537q0 -67 -48 -116q-49 -49 -117 -49t-116 49q-49 49 -49 116q0 70 48 118q47 47 117 47q71 0 118 -47t47 -118zM357 537q0 36 -14 59q-15 22 -41 22q-28 0 -41 -21q-15 -23 -15 -60q0 -40 15 -62q14 -23 41 -23q26 0 41 24q14 23 14 61z" />
    <glyph glyph-name="guillemotright" unicode="&#xbb;" 
d="M538 304v-59l-242 -219v92l140 154l-140 159v90zM307 304v-59l-242 -219v92l140 154l-140 159v90z" />
    <glyph glyph-name="onequarter" unicode="&#xbc;" 
d="M81 387v224l-52 -30l-25 74l78 41h94v-309h48v-77h-199v77h56zM111 -13l298 715h83l-299 -715h-82zM614 74h-42v-74h-97v74h-181v63l179 236h97v-222h44v-77zM475 151v122l-91 -122h91z" />
    <glyph glyph-name="onehalf" unicode="&#xbd;" 
d="M81 387v224l-52 -30l-25 74l78 41h94v-309h48v-77h-199v77h56zM111 -13l298 715h83l-299 -715h-82zM590 0h-247v24q0 40 16 68t61 61q45 32 61 56t16 51q0 44 -58 44q-11 0 -34 -5q-21 -5 -34 -11l-23 67q22 10 48 17q27 7 49 7q70 0 109 -31q38 -30 38 -87
q0 -74 -101 -146q-34 -23 -37 -40h136v-75z" />
    <glyph glyph-name="threequarters" unicode="&#xbe;" 
d="M492 702l-299 -715h-82l298 715h83zM614 74h-42v-74h-97v74h-181v63l179 236h97v-222h44v-77zM273 445q0 -62 -50 -97t-128 -35q-59 0 -109 30l25 72q38 -28 86 -28q36 0 57 15q22 16 22 40q0 26 -21 38t-67 12h-15l-7 65h19q83 0 83 40q0 30 -60 30q-38 0 -88 -25
l-15 75q57 25 104 25q77 0 116 -26q40 -27 40 -77q0 -25 -21 -46q-22 -22 -48 -26q34 -7 56 -29q21 -21 21 -53zM475 151v122l-91 -122h91z" />
    <glyph glyph-name="questiondown" unicode="&#xbf;" 
d="M91 -16q0 92 119 183l39 30q32 25 32 75v45h107v-46q0 -90 -61 -139l-51 -41q-68 -55 -68 -104q0 -39 27 -60q26 -20 74 -20q51 0 105 24l33 15l38 -93l-37 -15q-71 -28 -144 -28q-100 0 -156 45q-57 45 -57 129zM245 445q0 35 24 57q23 23 57 23q32 0 57 -23
q23 -23 23 -57q0 -31 -23 -54q-22 -22 -57 -22t-57 22q-24 23 -24 54z" />
    <glyph glyph-name="Agrave" unicode="&#xc0;" 
d="M404 207h-205l-58 -207h-119l221 689h119l217 -689h-116zM226 301h151l-75 265zM315 911l85 -147h-96l-142 147h153z" />
    <glyph glyph-name="Aacute" unicode="&#xc1;" 
d="M404 207h-205l-58 -207h-119l221 689h119l217 -689h-116zM226 301h151l-75 265zM296 911h153l-142 -147h-96z" />
    <glyph glyph-name="Acircumflex" unicode="&#xc2;" 
d="M404 207h-205l-58 -207h-119l221 689h119l217 -689h-116zM226 301h151l-75 265zM363 915l119 -151h-99l-79 62l-75 -62h-96l115 151h115z" />
    <glyph glyph-name="Atilde" unicode="&#xc3;" 
d="M404 207h-205l-58 -207h-119l221 689h119l217 -689h-116zM226 301h151l-75 265zM403 874h76q0 -54 -27 -86t-72 -32q-27 0 -75 14q-41 12 -64 12q-11 0 -16 -26h-80q11 116 99 116q29 0 89 -16q39 -10 52 -10q7 0 12 6q3 4 6 22z" />
    <glyph glyph-name="Adieresis" unicode="&#xc4;" 
d="M404 207h-205l-58 -207h-119l221 689h119l217 -689h-116zM226 301h151l-75 265zM459 813q0 -21 -20 -39q-19 -18 -46 -18t-46 18q-21 18 -21 39t21 39q20 17 46 17t46 -17q20 -18 20 -39zM273 813q0 -21 -20 -39q-19 -18 -46 -18t-46 18q-21 18 -21 39t21 39q20 17 46 17
t46 -17q20 -18 20 -39z" />
    <glyph glyph-name="Aring" unicode="&#xc5;" 
d="M579 0h-116l-59 207h-205l-58 -207h-119l212 656q-38 38 -38 77q0 42 31 73q30 31 73 31q44 0 74 -30t30 -74q0 -43 -31 -74zM226 301h151l-75 265zM345 734q0 19 -13 32t-32 13t-32 -13t-13 -32t13 -32t32 -13t32 13t13 32z" />
    <glyph glyph-name="AE" unicode="&#xc6;" 
d="M207 689h351v-99h-172v-172h161v-94h-161v-225h175v-99h-290v207h-108l-58 -207h-119zM190 301h81v265h-5z" />
    <glyph glyph-name="Ccedilla" unicode="&#xc7;" 
d="M140 78q-66 92 -66 266q0 173 67 265q67 93 193 93q65 0 107 -15q43 -14 95 -52l-58 -83q-77 56 -144 56q-71 0 -105 -64q-35 -65 -35 -200q0 -263 140 -263q26 0 72 11q45 11 76 26l39 -84q-39 -21 -67 -29.5t-75 -16.5l-11 -19q27 -5 44 -23q16 -16 16 -39
q0 -46 -44 -67q-45 -21 -151 -21v66q99 0 99 24q0 7 -23 15q-26 7 -53 7l31 61q-34 1 -75.5 22.5t-71.5 63.5z" />
    <glyph glyph-name="Egrave" unicode="&#xc8;" 
d="M491 99v-99h-400v689h397v-99h-282v-172h271v-94h-271v-225h285zM315 911l85 -147h-95l-142 147h152z" />
    <glyph glyph-name="Eacute" unicode="&#xc9;" 
d="M491 99v-99h-400v689h397v-99h-282v-172h271v-94h-271v-225h285zM298 911h154l-142 -147h-97z" />
    <glyph glyph-name="Ecircumflex" unicode="&#xca;" 
d="M491 99v-99h-400v689h397v-99h-282v-172h271v-94h-271v-225h285zM365 915l119 -151h-99l-79 62l-75 -62h-96l115 151h115z" />
    <glyph glyph-name="Edieresis" unicode="&#xcb;" 
d="M491 99v-99h-400v689h397v-99h-282v-172h271v-94h-271v-225h285zM463 813q0 -21 -20 -39q-19 -18 -46 -18t-46 18q-21 18 -21 39t21 39q20 17 46 17t46 -17q20 -18 20 -39zM277 813q0 -21 -20 -39q-19 -18 -46 -18t-46 18q-21 18 -21 39t21 39q20 17 46 17t46 -17
q20 -18 20 -39z" />
    <glyph glyph-name="Igrave" unicode="&#xcc;" 
d="M482 94v-94h-349v94h119v501h-119v94h349v-94h-114v-501h114zM308 911l85 -147h-96l-142 147h153z" />
    <glyph glyph-name="Iacute" unicode="&#xcd;" 
d="M482 94v-94h-349v94h119v501h-119v94h349v-94h-114v-501h114zM288 911h153l-142 -147h-96z" />
    <glyph glyph-name="Icircumflex" unicode="&#xce;" 
d="M482 94v-94h-349v94h119v501h-119v94h349v-94h-114v-501h114zM363 915l119 -151h-99l-79 62l-75 -62h-96l115 151h115z" />
    <glyph glyph-name="Idieresis" unicode="&#xcf;" 
d="M482 94v-94h-349v94h119v501h-119v94h349v-94h-114v-501h114zM459 813q0 -21 -20 -39q-19 -18 -46 -18t-46 18q-21 18 -21 39t21 39q20 17 46 17t46 -17q20 -18 20 -39zM273 813q0 -21 -20 -39q-19 -18 -46 -18t-46 18q-21 18 -21 39t21 39q20 17 46 17t46 -17
q20 -18 20 -39z" />
    <glyph glyph-name="Eth" unicode="&#xd0;" 
d="M199 393h85v-80h-85v-219h58q79 0 121 64t42 186q0 123 -42 187t-121 64h-58v-202zM84 313h-68v80h68v296h173q130 0 206 -94t76 -251q0 -149 -78 -247q-78 -97 -204 -97h-173v313z" />
    <glyph glyph-name="Ntilde" unicode="&#xd1;" 
d="M530 689v-689h-110l-215 435l-31 79l11 -159v-355h-111v689h113l223 -452l22 -62l-13 134v380h111zM403 874h76q0 -54 -27 -86t-72 -32q-27 0 -75 14q-41 12 -64 12q-11 0 -16 -26h-80q11 116 99 116q29 0 89 -16q39 -10 52 -10q7 0 12 6q3 4 6 22z" />
    <glyph glyph-name="Ograve" unicode="&#xd2;" 
d="M538 344q0 -166 -63 -261q-63 -96 -176 -96t-176 96q-63 95 -63 261q0 170 62 265q62 93 177 93t177 -93q62 -95 62 -265zM418 344q0 151 -28 207q-28 57 -91 57q-62 0 -91 -56q-28 -56 -28 -208q0 -148 28 -205q28 -58 91 -58t91 57q28 55 28 206zM306 911l85 -147h-96
l-142 147h153z" />
    <glyph glyph-name="Oacute" unicode="&#xd3;" 
d="M538 344q0 -166 -63 -261q-63 -96 -176 -96t-176 96q-63 95 -63 261q0 170 62 265q62 93 177 93t177 -93q62 -95 62 -265zM418 344q0 151 -28 207q-28 57 -91 57q-62 0 -91 -56q-28 -56 -28 -208q0 -148 28 -205q28 -58 91 -58t91 57q28 55 28 206zM294 911h153
l-142 -147h-96z" />
    <glyph glyph-name="Ocircumflex" unicode="&#xd4;" 
d="M538 344q0 -166 -63 -261q-63 -96 -176 -96t-176 96q-63 95 -63 261q0 170 62 265q62 93 177 93t177 -93q62 -95 62 -265zM418 344q0 151 -28 207q-28 57 -91 57q-62 0 -91 -56q-28 -56 -28 -208q0 -148 28 -205q28 -58 91 -58t91 57q28 55 28 206zM363 915l119 -151h-99
l-79 62l-75 -62h-96l115 151h115z" />
    <glyph glyph-name="Otilde" unicode="&#xd5;" 
d="M538 344q0 -166 -63 -261q-63 -96 -176 -96t-176 96q-63 95 -63 261q0 170 62 265q62 93 177 93t177 -93q62 -95 62 -265zM418 344q0 151 -28 207q-28 57 -91 57q-62 0 -91 -56q-28 -56 -28 -208q0 -148 28 -205q28 -58 91 -58t91 57q28 55 28 206zM403 874h76
q0 -54 -27 -86t-72 -32q-27 0 -75 14q-41 12 -64 12q-11 0 -16 -26h-80q11 116 99 116q29 0 89 -16q39 -10 52 -10q7 0 12 6q3 4 6 22z" />
    <glyph glyph-name="Odieresis" unicode="&#xd6;" 
d="M538 344q0 -166 -63 -261q-63 -96 -176 -96t-176 96q-63 95 -63 261q0 170 62 265q62 93 177 93t177 -93q62 -95 62 -265zM418 344q0 151 -28 207q-28 57 -91 57q-62 0 -91 -56q-28 -56 -28 -208q0 -148 28 -205q28 -58 91 -58t91 57q28 55 28 206zM459 813
q0 -21 -20 -39q-19 -18 -46 -18t-46 18q-21 18 -21 39t21 39q20 17 46 17t46 -17q20 -18 20 -39zM273 813q0 -21 -20 -39q-19 -18 -46 -18t-46 18q-21 18 -21 39t21 39q20 17 46 17t46 -17q20 -18 20 -39z" />
    <glyph glyph-name="multiply" unicode="&#xd7;" 
d="M151 559l148 -149l149 149l57 -57l-149 -149l149 -149l-56 -57l-151 151l-149 -150l-55 56l148 150l-148 148z" />
    <glyph glyph-name="Oslash" unicode="&#xd8;" 
d="M538 344q0 -167 -63 -263t-176 -96q-57 0 -103 26q-1 0 -31 -68h-109l64 142q-60 95 -60 259q0 172 62 267q62 93 177 93q54 0 90 -18l28 64h110l-58 -129q69 -92 69 -277zM186 234l161 360q-21 10 -48 10q-64 0 -91 -55q-28 -55 -28 -205q0 -61 6 -110zM418 344
q0 94 -10 141l-171 -380q25 -20 62 -20q64 0 92 55q27 56 27 204z" />
    <glyph glyph-name="Ugrave" unicode="&#xd9;" 
d="M520 689v-449q0 -124 -55 -188q-56 -65 -163 -65q-104 0 -161 67q-57 68 -57 184v451h115v-451q0 -70 27 -114q27 -43 76 -43q52 0 78 38q25 37 25 121v449h115zM310 911l85 -147h-96l-142 147h153z" />
    <glyph glyph-name="Uacute" unicode="&#xda;" 
d="M520 689v-449q0 -124 -55 -188q-56 -65 -163 -65q-104 0 -161 67q-57 68 -57 184v451h115v-451q0 -70 27 -114q27 -43 76 -43q52 0 78 38q25 37 25 121v449h115zM297 911h153l-142 -147h-96z" />
    <glyph glyph-name="Ucircumflex" unicode="&#xdb;" 
d="M520 689v-449q0 -124 -55 -188q-56 -65 -163 -65q-104 0 -161 67q-57 68 -57 184v451h115v-451q0 -70 27 -114q27 -43 76 -43q52 0 78 38q25 37 25 121v449h115zM363 915l119 -151h-99l-79 62l-75 -62h-96l115 151h115z" />
    <glyph glyph-name="Udieresis" unicode="&#xdc;" 
d="M520 689v-449q0 -124 -55 -188q-56 -65 -163 -65q-104 0 -161 67q-57 68 -57 184v451h115v-451q0 -70 27 -114q27 -43 76 -43q52 0 78 38q25 37 25 121v449h115zM459 813q0 -21 -20 -39q-19 -18 -46 -18t-46 18q-21 18 -21 39t21 39q20 17 46 17t46 -17q20 -18 20 -39z
M273 813q0 -21 -20 -39q-19 -18 -46 -18t-46 18q-21 18 -21 39t21 39q20 17 46 17t46 -17q20 -18 20 -39z" />
    <glyph glyph-name="Yacute" unicode="&#xdd;" 
d="M591 689l-232 -397v-292h-116v292l-232 397h125l169 -293l162 293h124zM453 911l-142 -147h-97l85 147h154z" />
    <glyph glyph-name="Thorn" unicode="&#xde;" 
d="M531 357q0 -59 -37 -106q-39 -49 -104 -77q-69 -29 -134 -29h-41v-145h-115v689h115v-136h50q118 0 192 -53t74 -143zM409 356q0 46 -42 74q-43 29 -102 29h-50v-220h46q58 0 103 33t45 84z" />
    <glyph glyph-name="germandbls" unicode="&#xdf;" 
d="M575 155q0 -75 -54 -122q-53 -46 -142 -46q-84 0 -158 37l24 90q81 -38 131 -38q34 0 60 20q24 20 24 49q0 26 -11 43q-12 15 -59 32l-51 19q-120 45 -120 140q0 30 16 53q17 25 64 55q44 29 58 49q13 19 13 42q0 45 -25 69t-73 24q-101 0 -101 -140v-531h-115v560
q0 96 57 149q56 52 162 52q56 0 106 -22q51 -23 78 -63q26 -41 26 -94q0 -40 -18 -68q-17 -28 -71 -67q-35 -24 -47 -39q-11 -14 -11 -31q0 -21 48 -41l63 -26q67 -27 96 -64q30 -38 30 -91z" />
    <glyph glyph-name="agrave" unicode="&#xe0;" 
d="M518 329v-329h-112v51q-61 -64 -149 -64q-77 0 -127 41t-50 113q0 75 68 119q70 45 182 51l74 4v4q0 51 -32 83t-78 32q-72 0 -151 -43l-40 83q42 23 104 38q63 15 111 15q96 0 148 -51t52 -147zM404 147v85l-58 -3q-148 -7 -148 -88q0 -26 22 -44t51 -18q67 0 133 68z
M314 731l85 -147h-96l-142 147h153z" />
    <glyph glyph-name="aacute" unicode="&#xe1;" 
d="M518 329v-329h-112v51q-61 -64 -149 -64q-77 0 -127 41t-50 113q0 75 68 119q70 45 182 51l74 4v4q0 51 -32 83t-78 32q-72 0 -151 -43l-40 83q42 23 104 38q63 15 111 15q96 0 148 -51t52 -147zM404 147v85l-58 -3q-148 -7 -148 -88q0 -26 22 -44t51 -18q67 0 133 68z
M297 731h153l-142 -147h-96z" />
    <glyph glyph-name="acircumflex" unicode="&#xe2;" 
d="M518 329v-329h-112v51q-61 -64 -149 -64q-77 0 -127 41t-50 113q0 75 68 119q70 45 182 51l74 4v4q0 51 -32 83t-78 32q-72 0 -151 -43l-40 83q42 23 104 38q63 15 111 15q96 0 148 -51t52 -147zM404 147v85l-58 -3q-148 -7 -148 -88q0 -26 22 -44t51 -18q67 0 133 68z
M369 735l119 -151h-99l-79 62l-75 -62h-96l115 151h115z" />
    <glyph glyph-name="atilde" unicode="&#xe3;" 
d="M518 329v-329h-112v51q-61 -64 -149 -64q-77 0 -127 41t-50 113q0 75 68 119q70 45 182 51l74 4v4q0 51 -32 83t-78 32q-72 0 -151 -43l-40 83q42 23 104 38q63 15 111 15q96 0 148 -51t52 -147zM404 147v85l-58 -3q-148 -7 -148 -88q0 -26 22 -44t51 -18q67 0 133 68z
M403 702h76q0 -54 -27 -86t-72 -32q-27 0 -75 14q-41 12 -64 12q-11 0 -16 -26h-80q11 116 99 116q28 0 89 -15q42 -11 52 -11q7 0 12 6q3 6 6 22z" />
    <glyph glyph-name="adieresis" unicode="&#xe4;" 
d="M518 329v-329h-112v51q-61 -64 -149 -64q-77 0 -127 41t-50 113q0 75 68 119q70 45 182 51l74 4v4q0 51 -32 83t-78 32q-72 0 -151 -43l-40 83q42 23 104 38q63 15 111 15q96 0 148 -51t52 -147zM404 147v85l-58 -3q-148 -7 -148 -88q0 -26 22 -44t51 -18q67 0 133 68z
M459 641q0 -21 -20 -39q-19 -18 -46 -18t-46 18q-21 18 -21 39t21 39q20 17 46 17t46 -17q20 -18 20 -39zM273 641q0 -21 -20 -39q-19 -18 -46 -18t-46 18q-21 18 -21 39t21 39q20 17 46 17t46 -17q20 -18 20 -39z" />
    <glyph glyph-name="aring" unicode="&#xe5;" 
d="M518 329v-329h-112v51q-61 -64 -149 -64q-77 0 -127 41t-50 113q0 75 68 119q70 45 182 51l74 4v4q0 51 -32 83t-78 32q-72 0 -151 -43l-40 83q42 23 104 38q63 15 111 15q96 0 148 -51t52 -147zM404 147v85l-58 -3q-148 -7 -148 -88q0 -26 22 -44t51 -18q67 0 133 68z
M404 688q0 -43 -30 -73q-31 -31 -74 -31t-73 31q-31 31 -31 73t31 73q30 31 73 31q44 0 74 -30t30 -74zM345 689q0 19 -13 32t-32 13t-32 -13t-13 -32t13 -32t32 -13t32 13t13 32z" />
    <glyph glyph-name="ae" unicode="&#xe6;" 
d="M598 281v-46h-238q0 -69 24 -111q25 -43 69 -43q36 0 63 6q26 5 62 21l18 -88q-60 -33 -143 -33q-97 0 -152 57q-72 -57 -150 -57q-61 0 -104 43q-44 44 -44 105q0 75 51 120q52 47 146 56l42 4q0 63 -17 91q-16 27 -53 27q-31 0 -52 -7q-27 -9 -51 -23l-40 76
q86 48 167 48q83 0 122 -42q45 42 110 42q47 0 87 -31q41 -32 62 -86q21 -52 21 -129zM360 320h113q-4 115 -45 115q-58 0 -68 -115zM260 116q-17 53 -20 112l-24 -3q-48 -6 -70 -27q-25 -22 -25 -57q0 -27 15 -43q15 -18 38 -18q36 0 86 36z" />
    <glyph glyph-name="ccedilla" unicode="&#xe7;" horiz-adv-x="603" 
d="M515 21l-18 92q-53 -20 -83 -26q-29 -7 -69 -7q-64 0 -105 53t-41 124q0 77 40 127q41 50 105 50q65 0 136 -33l33 93q-77 33 -170 33q-114 0 -187 -76q-74 -77 -74 -194q0 -113 78 -197q18 -19 58.5 -40.5t69.5 -28.5l-32 -64q32 0 53 -7q23 -6 23 -15q0 -20 -99 -20
v-70q106 0 151 21q44 21 44 67q0 23 -16 39q-17 18 -44 23l10 24q45 3 69.5 9t67.5 23z" />
    <glyph glyph-name="egrave" unicode="&#xe8;" 
d="M524 265v-30h-346v-3q0 -60 42 -106q42 -47 103 -47q75 0 162 34l19 -93q-90 -33 -181 -33q-116 0 -189 76q-74 76 -74 191q0 120 69 196q69 77 177 77q56 0 108 -34q54 -35 82 -93q28 -57 28 -135zM187 320h215q-8 52 -33 84q-25 31 -64 31q-84 0 -118 -115zM316 731
l85 -147h-96l-142 147h153z" />
    <glyph glyph-name="eacute" unicode="&#xe9;" 
d="M524 265v-30h-346v-3q0 -60 42 -106q42 -47 103 -47q75 0 162 34l19 -93q-90 -33 -181 -33q-116 0 -189 76q-74 76 -74 191q0 120 69 196q69 77 177 77q56 0 108 -34q54 -35 82 -93q28 -57 28 -135zM187 320h215q-8 52 -33 84q-25 31 -64 31q-84 0 -118 -115zM295 731
h153l-142 -147h-96z" />
    <glyph glyph-name="ecircumflex" unicode="&#xea;" 
d="M524 265v-30h-346v-3q0 -60 42 -106q42 -47 103 -47q75 0 162 34l19 -93q-90 -33 -181 -33q-116 0 -189 76q-74 76 -74 191q0 120 69 196q69 77 177 77q56 0 108 -34q54 -35 82 -93q28 -57 28 -135zM187 320h215q-8 52 -33 84q-25 31 -64 31q-84 0 -118 -115zM363 735
l119 -151h-99l-79 62l-75 -62h-96l115 151h115z" />
    <glyph glyph-name="edieresis" unicode="&#xeb;" 
d="M524 265v-30h-346v-3q0 -60 42 -106q42 -47 103 -47q75 0 162 34l19 -93q-90 -33 -181 -33q-116 0 -189 76q-74 76 -74 191q0 120 69 196q69 77 177 77q56 0 108 -34q54 -35 82 -93q28 -57 28 -135zM187 320h215q-8 52 -33 84q-25 31 -64 31q-84 0 -118 -115zM459 641
q0 -21 -20 -39q-19 -18 -46 -18t-46 18q-21 18 -21 39t21 39q20 17 46 17t46 -17q20 -18 20 -39zM273 641q0 -21 -20 -39q-19 -18 -46 -18t-46 18q-21 18 -21 39t21 39q20 17 46 17t46 -17q20 -18 20 -39z" />
    <glyph glyph-name="igrave" unicode="&#xec;" 
d="M377 515v-515h-114v423h-132v92h246zM312 731l84 -147h-95l-142 147h153z" />
    <glyph glyph-name="iacute" unicode="&#xed;" 
d="M377 515v-515h-114v423h-132v92h246zM293 731h154l-142 -147h-97z" />
    <glyph glyph-name="icircumflex" unicode="&#xee;" 
d="M377 515v-515h-114v423h-132v92h246zM356 735l119 -151h-99l-79 62l-75 -62h-96l115 151h115z" />
    <glyph glyph-name="idieresis" unicode="&#xef;" 
d="M377 515v-515h-114v423h-132v92h246zM459 641q0 -21 -20 -39q-19 -18 -46 -18t-46 18q-21 18 -21 39t21 39q20 17 46 17t46 -17q20 -18 20 -39zM273 641q0 -21 -20 -39q-19 -18 -46 -18t-46 18q-21 18 -21 39t21 39q20 17 46 17t46 -17q20 -18 20 -39z" />
    <glyph glyph-name="eth" unicode="&#xf0;" 
d="M431 257q0 85 -33 132q-33 46 -95 46q-63 0 -96 -46q-33 -47 -33 -132t33 -131t96 -46q62 0 95 46q33 47 33 131zM332 525q-33 40 -76 80l-87 -53l-43 41l88 52l-71 62l62 40q34 -24 78 -62l79 48l44 -42l-81 -47q123 -114 175 -206q51 -90 51 -181q0 -113 -71 -192
q-70 -78 -177 -78t-178 78q-71 79 -71 192q0 116 70 194q69 76 179 76q15 0 29 -2z" />
    <glyph glyph-name="ntilde" unicode="&#xf1;" 
d="M520 347v-347h-113v301q0 77 -15 104q-15 29 -57 29q-63 0 -137 -74v-360h-114v515h112v-53q83 65 162 65q87 0 124 -43q38 -44 38 -137zM403 702h76q0 -54 -27 -86t-72 -32q-27 0 -75 14q-41 12 -64 12q-11 0 -16 -26h-80q11 116 99 116q28 0 89 -15q42 -11 52 -11
q7 0 12 6q3 6 6 22z" />
    <glyph glyph-name="ograve" unicode="&#xf2;" 
d="M551 257q0 -113 -71 -192q-70 -78 -177 -78t-178 78q-71 79 -71 192q0 118 70 194q69 76 179 76t179 -76q69 -77 69 -194zM431 257q0 85 -32 132q-33 46 -96 46t-96 -46q-33 -47 -33 -132q0 -84 34 -130q33 -47 95 -47t95 46q33 47 33 131zM319 731l85 -147h-95l-142 147
h152z" />
    <glyph glyph-name="oacute" unicode="&#xf3;" 
d="M551 257q0 -113 -71 -192q-70 -78 -177 -78t-178 78q-71 79 -71 192q0 118 70 194q69 76 179 76t179 -76q69 -77 69 -194zM431 257q0 85 -32 132q-33 46 -96 46t-96 -46q-33 -47 -33 -132q0 -84 34 -130q33 -47 95 -47t95 46q33 47 33 131zM303 731h154l-143 -147h-96z
" />
    <glyph glyph-name="ocircumflex" unicode="&#xf4;" 
d="M551 257q0 -113 -71 -192q-70 -78 -177 -78t-178 78q-71 79 -71 192q0 118 70 194q69 76 179 76t179 -76q69 -77 69 -194zM431 257q0 85 -32 132q-33 46 -96 46t-96 -46q-33 -47 -33 -132q0 -84 34 -130q33 -47 95 -47t95 46q33 47 33 131zM363 735l119 -151h-99l-79 62
l-75 -62h-96l115 151h115z" />
    <glyph glyph-name="otilde" unicode="&#xf5;" 
d="M551 257q0 -113 -71 -192q-70 -78 -177 -78t-178 78q-71 79 -71 192q0 118 70 194q69 76 179 76t179 -76q69 -77 69 -194zM431 257q0 85 -32 132q-33 46 -96 46t-96 -46q-33 -47 -33 -132q0 -84 34 -130q33 -47 95 -47t95 46q33 47 33 131zM403 702h76q0 -54 -27 -86
t-72 -32q-27 0 -75 14q-41 12 -64 12q-11 0 -16 -26h-80q11 116 99 116q28 0 89 -15q42 -11 52 -11q7 0 12 6q3 6 6 22z" />
    <glyph glyph-name="odieresis" unicode="&#xf6;" 
d="M551 257q0 -113 -71 -192q-70 -78 -177 -78t-178 78q-71 79 -71 192q0 118 70 194q69 76 179 76t179 -76q69 -77 69 -194zM431 257q0 85 -32 132q-33 46 -96 46t-96 -46q-33 -47 -33 -132q0 -84 34 -130q33 -47 95 -47t95 46q33 47 33 131zM459 641q0 -21 -20 -39
q-19 -18 -46 -18t-46 18q-21 18 -21 39t21 39q20 17 46 17t46 -17q20 -18 20 -39zM273 641q0 -21 -20 -39q-19 -18 -46 -18t-46 18q-21 18 -21 39t21 39q20 17 46 17t46 -17q20 -18 20 -39z" />
    <glyph glyph-name="divide" unicode="&#xf7;" 
d="M375 528q0 -29 -22 -50q-23 -21 -53 -21q-29 0 -52 21q-22 21 -22 50q0 30 21 50q20 19 53 19q32 0 54 -19q21 -20 21 -50zM551 393v-80h-502v80h502zM375 180q0 -29 -22 -50q-23 -21 -53 -21q-29 0 -52 21q-22 21 -22 50q0 30 21 50q20 19 53 19q32 0 54 -19
q21 -20 21 -50z" />
    <glyph glyph-name="oslash" unicode="&#xf8;" 
d="M401 385l-123 -303q22 -2 25 -2q62 0 95 46q33 47 33 131q0 81 -30 128zM206 128l124 305q-22 2 -27 2q-63 0 -96 -46q-33 -47 -33 -132q0 -82 32 -129zM111 -107l55 136q-52 37 -82 98q-30 63 -30 130q0 118 70 194q69 76 179 76q35 0 62 -7l36 88h91l-50 -122
q52 -36 81 -96q28 -59 28 -133q0 -113 -71 -192q-70 -78 -177 -78q-26 0 -61 7l-41 -101h-90z" />
    <glyph glyph-name="ugrave" unicode="&#xf9;" 
d="M521 515v-515h-112v52q-85 -65 -162 -65q-87 0 -124 43q-38 44 -38 137v348h114v-302q0 -75 15 -104t56 -29q60 0 137 75v360h114zM314 731l85 -147h-96l-142 147h153z" />
    <glyph glyph-name="uacute" unicode="&#xfa;" 
d="M521 515v-515h-112v52q-85 -65 -162 -65q-87 0 -124 43q-38 44 -38 137v348h114v-302q0 -75 15 -104t56 -29q60 0 137 75v360h114zM297 731h153l-142 -147h-96z" />
    <glyph glyph-name="ucircumflex" unicode="&#xfb;" 
d="M521 515v-515h-112v52q-85 -65 -162 -65q-87 0 -124 43q-38 44 -38 137v348h114v-302q0 -75 15 -104t56 -29q60 0 137 75v360h114zM363 735l119 -151h-99l-79 62l-75 -62h-96l115 151h115z" />
    <glyph glyph-name="udieresis" unicode="&#xfc;" 
d="M521 515v-515h-112v52q-85 -65 -162 -65q-87 0 -124 43q-38 44 -38 137v348h114v-302q0 -75 15 -104t56 -29q60 0 137 75v360h114zM459 641q0 -21 -20 -39q-19 -18 -46 -18t-46 18q-21 18 -21 39t21 39q20 17 46 17t46 -17q20 -18 20 -39zM273 641q0 -21 -20 -39
q-19 -18 -46 -18t-46 18q-21 18 -21 39t21 39q20 17 46 17t46 -17q20 -18 20 -39z" />
    <glyph glyph-name="yacute" unicode="&#xfd;" 
d="M549 515l-192 -497q-45 -117 -93 -168q-55 -58 -119 -58q-40 0 -106 21l39 90q48 -19 74 -19q57 0 100 131l-217 500h120l150 -352l127 352h117zM455 731l-142 -147h-96l85 147h153z" />
    <glyph glyph-name="thorn" unicode="&#xfe;" 
d="M550 267q0 -120 -59 -200t-155 -80q-82 0 -138 62v-257h-114v958h115v-275q59 52 143 52q96 0 152 -71t56 -189zM431 255q0 86 -29 133t-83 47q-66 0 -120 -67v-192q47 -97 117 -97q52 0 84 50q31 49 31 126z" />
    <glyph glyph-name="ydieresis" unicode="&#xff;" 
d="M432 515h117l-192 -497q-46 -119 -93 -168q-55 -58 -119 -58q-42 0 -106 21l39 90q48 -19 74 -19q56 0 100 131l-217 500h120l150 -352zM459 641q0 -21 -20 -39q-19 -18 -46 -18t-46 18q-21 18 -21 39t21 39q20 17 46 17t46 -17q20 -18 20 -39zM273 641q0 -21 -20 -39
q-19 -18 -46 -18t-46 18q-21 18 -21 39t21 39q20 17 46 17t46 -17q20 -18 20 -39z" />
    <glyph glyph-name="dotlessi" unicode="&#x131;" 
d="M377 515v-515h-114v423h-132v92h246z" />
    <glyph glyph-name="Lslash" unicode="&#x141;" 
d="M367 486v-86l-132 -87v-219h261v-94h-376v237l-85 -56v85l85 56v367h115v-291z" />
    <glyph glyph-name="lslash" unicode="&#x142;" 
d="M422 515v-84l-85 -59v-280h132v-92h-246v293l-83 -57v85l83 57v280h-125v92h239v-294z" />
    <glyph glyph-name="OE" unicode="&#x152;" 
d="M561 99v-99h-270q-110 0 -170 92q-61 91 -61 252q0 169 61 257t178 88h259v-99h-172v-172h161v-99h-161v-220h175zM271 101v486q-49 -7 -70 -57t-21 -186q0 -124 22 -178q23 -56 69 -65z" />
    <glyph glyph-name="oe" unicode="&#x153;" 
d="M598 281v-43h-238v-8q0 -69 25 -109q24 -40 68 -40q61 0 125 27l18 -88q-41 -20 -71 -27q-31 -6 -72 -6q-69 0 -118 34q-49 -34 -110 -34q-95 0 -157 77t-62 190q0 121 61 197q60 76 158 76q64 0 108 -28q40 28 95 28q48 0 88 -31t61 -86q21 -56 21 -129zM360 320h113
q-5 116 -45 116q-57 0 -68 -116zM274 98q-32 70 -32 181q0 63 29 135q-22 14 -46 14q-99 0 -99 -174q0 -168 99 -168q29 0 49 12z" />
    <glyph glyph-name="Scaron" unicode="&#x160;" 
d="M527 196q0 -99 -72 -154q-71 -55 -189 -55q-62 0 -109 11q-43 10 -89 36l37 99q79 -52 157 -52q67 0 109 27t42 76q0 29 -27 56q-30 30 -97 62l-76 37q-79 39 -112 82q-32 42 -32 101q0 82 66 131q65 49 174 49q81 0 194 -30l-38 -98q-31 13 -80 24q-46 10 -75 10
q-60 0 -92 -22q-33 -22 -33 -61q0 -25 20 -45q26 -26 75 -50l66 -33q82 -42 116 -71q32 -28 49 -60q16 -31 16 -70zM472 930l-119 -151h-115l-115 151h96l74 -62l80 62h99z" />
    <glyph glyph-name="scaron" unicode="&#x161;" 
d="M483 152q0 -76 -68 -120q-69 -45 -167 -45q-103 0 -178 33l24 92q80 -37 151 -37q45 0 85 19q37 18 37 47q0 25 -22 42t-87 35l-70 19q-57 15 -88 52q-32 38 -32 86q0 68 65 110q64 42 165 42q74 0 160 -23l-25 -92q-81 27 -134 27q-51 0 -83 -15t-32 -41q0 -20 14 -33
q15 -14 52 -24l80 -21q82 -23 118 -58q35 -35 35 -95zM452 750l-119 -151h-115l-115 151h96l74 -62l80 62h99z" />
    <glyph glyph-name="Ydieresis" unicode="&#x178;" 
d="M467 689h124l-232 -397v-292h-116v292l-232 397h125l169 -293zM459 813q0 -21 -20 -39q-19 -18 -46 -18t-46 18q-21 18 -21 39t21 39q20 17 46 17t46 -17q20 -18 20 -39zM273 813q0 -21 -20 -39q-19 -18 -46 -18t-46 18q-21 18 -21 39t21 39q20 17 46 17t46 -17
q20 -18 20 -39z" />
    <glyph glyph-name="Zcaron" unicode="&#x17d;" 
d="M528 689v-63l-324 -532h318v-94h-453v62l323 533h-309v94h445zM380 915h99l-119 -151h-115l-115 151h96l75 -62z" />
    <glyph glyph-name="zcaron" unicode="&#x17e;" 
d="M510 92v-92h-431v53l273 370h-266v92h424v-49l-275 -374h275zM376 750h99l-119 -151h-115l-115 151h96l75 -62z" />
    <glyph glyph-name="florin" unicode="&#x192;" 
d="M594 682l-51 -93q-39 13 -73 13q-24 0 -39 -17q-15 -15 -32 -70h114v-95h-137l-84 -358q-46 -199 -185 -199q-43 0 -106 19l50 92q28 -11 54 -11q25 0 42 18q18 19 31 74l89 365h-84v95h104q48 187 181 187q57 0 126 -20z" />
    <glyph glyph-name="circumflex" unicode="&#x2c6;" 
d="M363 735l119 -151h-99l-79 62l-75 -62h-96l115 151h115z" />
    <glyph glyph-name="caron" unicode="&#x2c7;" 
d="M379 750h99l-119 -151h-115l-115 151h96l75 -62z" />
    <glyph glyph-name="breve" unicode="&#x2d8;" 
d="M356 713h107q-30 -129 -164 -129q-137 0 -167 129h106q7 -24 22 -36q14 -11 40 -11q22 0 36 11q13 11 20 36z" />
    <glyph glyph-name="dotaccent" unicode="&#x2d9;" 
d="M368 649q0 -27 -19 -46t-48 -19q-27 0 -46 19q-20 20 -20 46q0 25 20 45q19 19 46 19q29 0 48 -18q19 -19 19 -46z" />
    <glyph glyph-name="ring" unicode="&#x2da;" 
d="M404 688q0 -43 -30 -73q-31 -31 -74 -31t-73 31q-31 31 -31 73t31 73q30 31 73 31q44 0 74 -30t30 -74zM345 689q0 19 -13 32t-32 13t-32 -13t-13 -32t13 -32t32 -13t32 13t13 32z" />
    <glyph glyph-name="ogonek" unicode="&#x2db;" 
d="M415 -84v-77q-34 -12 -49 -15q-16 -3 -44 -3q-50 0 -82 26q-31 25 -31 68q0 51 55 93h101q-25 -24 -36 -42q-12 -17 -12 -37q0 -9 10 -18q10 -8 21 -8q28 0 67 13z" />
    <glyph glyph-name="tilde" unicode="&#x2dc;" 
d="M403 702h76q0 -54 -27 -86t-72 -32q-27 0 -75 14q-41 12 -64 12q-11 0 -16 -26h-80q11 116 99 116q28 0 89 -15q42 -11 52 -11q7 0 12 6q3 6 6 22z" />
    <glyph glyph-name="hungarumlaut" unicode="&#x2dd;" 
d="M352 750h153l-142 -147h-96zM192 750h153l-142 -147h-96z" />
    <glyph glyph-name="Delta" unicode="&#x394;" 
d="M559 84v-84h-530v83l210 606h119zM152 99h286l-143 443z" />
    <glyph glyph-name="Delta" unicode="&#x2206;" 
d="M559 84v-84h-530v83l210 606h119zM152 99h286l-143 443z" />
    <glyph glyph-name="Omega" unicode="&#x3a9;" 
d="M543 89v-89h-226v85q101 41 101 270q0 146 -28 201q-29 56 -91 56q-63 0 -91 -55t-28 -202q0 -231 107 -270v-85h-232v89h87q-35 48 -59 122q-23 72 -23 144q0 169 61 258q62 89 178 89t178 -89q61 -89 61 -258q0 -75 -22 -144q-23 -71 -60 -122h87z" />
    <glyph glyph-name="pi" unicode="&#x3c0;" 
d="M604 413h-104v-413h-115v413h-156v-413h-115v413h-12q-32 0 -106 -15v111q68 12 100 12h508v-108z" />
    <glyph glyph-name="endash" unicode="&#x2013;" 
d="M515 362v-84h-440v84h440z" />
    <glyph glyph-name="emdash" unicode="&#x2014;" 
d="M624 362v-84h-649v84h649z" />
    <glyph glyph-name="quoteleft" unicode="&#x2018;" 
d="M222 506q0 60 40 113q41 53 108 83v-68q-55 -31 -55 -58q27 0 48 -23q20 -23 20 -53t-23 -53t-54 -23q-37 0 -60 23q-24 22 -24 59z" />
    <glyph glyph-name="quoteright" unicode="&#x2019;" 
d="M378 620q0 -60 -40 -112q-40 -54 -108 -84v68q55 31 55 58q-27 0 -47 23q-21 22 -21 53t23 54q22 22 54 22q38 0 61 -22q23 -23 23 -60z" />
    <glyph glyph-name="quotesinglbase" unicode="&#x201a;" 
d="M378 59q0 -60 -40 -113q-41 -53 -108 -83v68q55 31 55 58q-27 0 -47 23q-21 22 -21 53t23 54q22 22 54 22q38 0 61 -22q23 -23 23 -60z" />
    <glyph glyph-name="quotedblleft" unicode="&#x201c;" 
d="M325 518q0 60 40 113q41 53 108 83v-68q-55 -31 -55 -58q27 0 48 -23q20 -23 20 -53t-23 -53t-54 -23q-37 0 -60 23q-24 22 -24 59zM119 518q0 60 40 113q41 53 108 83v-68q-55 -31 -55 -58q27 0 48 -23q20 -23 20 -53t-23 -53t-54 -23q-37 0 -60 23q-24 22 -24 59z" />
    <glyph glyph-name="quotedblright" unicode="&#x201d;" 
d="M275 620q0 -60 -40 -112q-41 -54 -108 -84v68q55 31 55 58q-27 0 -47 23q-21 22 -21 53t23 54q22 22 54 22q38 0 61 -22q23 -23 23 -60zM481 620q0 -60 -40 -112q-41 -54 -108 -84v68q55 31 55 58q-27 0 -47 23q-21 22 -21 53t23 54q22 22 54 22q38 0 61 -22
q23 -23 23 -60z" />
    <glyph glyph-name="quotedblbase" unicode="&#x201e;" 
d="M275 59q0 -60 -40 -113q-41 -53 -108 -83v68q55 31 55 58q-27 0 -47 23q-21 22 -21 53t23 54q22 22 54 22q38 0 61 -22q23 -23 23 -60zM481 59q0 -60 -40 -113q-41 -53 -108 -83v68q55 31 55 58q-27 0 -47 23q-21 22 -21 53t23 54q22 22 54 22q38 0 61 -22q23 -23 23 -60
z" />
    <glyph glyph-name="dagger" unicode="&#x2020;" 
d="M550 494v-122h-87l-107 14v-557h-113v557l-108 -14h-86v122h86l105 -14l-3 98v111h125v-111l-3 -98l104 14h87z" />
    <glyph glyph-name="daggerdbl" unicode="&#x2021;" 
d="M550 146v-122h-87l-104 14l3 -97v-112h-125v112l3 97l-105 -14h-86v122h86l110 -14l15 126l-15 128l-119 -14h-77v122h77l114 -14l-3 98v111h125v-111l-3 -98l104 14h87v-122h-87l-109 14l-16 -128l16 -126l109 14h87z" />
    <glyph glyph-name="bullet" unicode="&#x2022;" 
d="M443 341q0 -53 -43 -93q-44 -41 -101 -41t-101 41q-43 40 -43 93q0 54 43 94t101 40t101 -40t43 -94z" />
    <glyph glyph-name="ellipsis" unicode="&#x2026;" 
d="M164 49q0 -26 -19 -44q-19 -19 -46 -19t-45 18q-19 18 -19 45q0 26 19 44q19 17 45 17t46 -18q19 -18 19 -43zM565 50q0 -26 -19 -44q-19 -19 -46 -19t-45 18q-19 18 -19 45q0 26 19 44q19 17 45 17t46 -18q19 -18 19 -43zM366 50q0 -26 -19 -44q-19 -19 -46 -19t-45 18
q-19 18 -19 45q0 26 19 44q19 17 45 17q27 0 46 -18t19 -43z" />
    <glyph glyph-name="perthousand" unicode="&#x2030;" 
d="M283 555q0 -69 -36 -108q-36 -40 -102 -40q-65 0 -101 40q-37 40 -37 108t37 108q36 39 101 39q66 0 102 -38q36 -39 36 -109zM557 641v-96l-556 -399v93zM184 555q0 71 -39 71t-39 -71q0 -72 39 -72t39 72zM319 135q0 71 -39 71t-39 -71q0 -72 39 -72t39 72zM455 63
q39 0 39 72q0 71 -39 71q-40 0 -40 -71q0 -72 40 -72zM368 18q-40 -31 -88 -31q-66 0 -102 40q-36 39 -36 108q0 68 37 108q36 39 101 39q48 0 88 -31q43 31 87 31q66 0 102 -38q36 -39 36 -109t-36 -109t-102 -39q-44 0 -87 31z" />
    <glyph glyph-name="guilsinglleft" unicode="&#x2039;" 
d="M403 26l-242 219v59l242 217v-90l-140 -159l140 -154v-92z" />
    <glyph glyph-name="guilsinglright" unicode="&#x203a;" 
d="M439 304v-59l-242 -219v92l140 154l-140 159v90z" />
    <glyph glyph-name="fraction" unicode="&#x2044;" 
d="M409 702h83l-299 -715h-82z" />
    <glyph glyph-name="fraction" unicode="&#x2215;" 
d="M409 702h83l-299 -715h-82z" />
    <glyph glyph-name="Euro" unicode="&#x20ac;" 
d="M520 45q-75 -54 -167 -54q-100 0 -164 62t-83 180h-69l37 80h25q-1 6 -1 31q0 28 1 36h-62l37 79h33q21 118 84 178q62 61 162 61q92 0 154 -44l-26 -87q-59 37 -128 37q-103 0 -130 -145h296l-37 -79h-268q-1 -8 -1 -36v-31h243l-37 -80h-198q25 -148 132 -148
q66 0 142 47z" />
    <glyph glyph-name="litre" unicode="&#x2113;" 
d="M470 49q-69 -64 -147 -64q-64 0 -100 38q-41 42 -41 129v76l-57 -57q-4 8 -36 55q16 16 47 46.5t46 45.5v208q0 96 39.5 149t109.5 53q58 0 86 -36.5t28 -82.5q0 -68 -30.5 -129t-88.5 -128q-5 -5 -17.5 -20t-17.5 -20v-148q0 -94 63 -94q40 0 81 43q2 -4 15 -28t20 -36z
M375 594q0 49 -36 49q-48 0 -48 -98v-138q10 10 20 24q64 87 64 163z" />
    <glyph glyph-name="trademark" unicode="&#x2122;" 
d="M562 689v-363h-74v225l-45 -108h-54l-45 108v-225h-69v363h84l58 -150l61 150h84zM251 689v-64h-82v-299h-76v299h-82v64h240z" />
    <glyph glyph-name="estimated" unicode="&#x212e;" 
d="M595 300h-462v-207q69 -67 164 -67q76 0 128.5 35t93.5 101q6 -3 18 -10.5t18 -11.5q-50 -75 -109.5 -113.5t-148.5 -38.5q-131 0 -211.5 90t-80.5 222q0 134 80 223t213 89q134 0 213.5 -89t83.5 -223zM463 338v168q-70 68 -165 68q-99 0 -165 -67v-169h330z" />
    <glyph glyph-name="partialdiff" unicode="&#x2202;" 
d="M559 338q0 -97 -43 -176q-44 -81 -117 -127q-73 -48 -153 -48q-89 0 -144 58t-55 154q0 82 43 161q44 80 115 126t155 46q21 0 46 -5q-32 60 -91 93q-61 33 -141 33h-10l-27 97h33q176 0 283 -111q106 -110 106 -301zM346 432q-78 0 -128 -72q-51 -74 -51 -164
q0 -52 24 -80t69 -28q49 0 90 32q38 30 65 91q24 58 24 112q0 53 -24 81t-69 28z" />
    <glyph glyph-name="product" unicode="&#x220f;" 
d="M604 689v-111h-84v-786h-115v786h-206v-786h-115v786h-88v111h608z" />
    <glyph glyph-name="summation" unicode="&#x2211;" 
d="M568 -108v-100h-544v78l234 410l-222 326v83h513v-100h-365l215 -302l-230 -395h399z" />
    <glyph glyph-name="minus" unicode="&#x2212;" 
d="M551 393v-80h-502v80h502z" />
    <glyph glyph-name="radical" unicode="&#x221a;" 
d="M599 782v-102h-56l-210 -812h-120l-95 287l-81 -29l-36 99l188 67l82 -258l192 748h136z" />
    <glyph glyph-name="infinity" unicode="&#x221e;" 
d="M585 272q0 -84 -37 -128q-37 -46 -100 -46q-59 0 -137 89l-7 8q-33 -51 -66 -74q-32 -22 -70 -22q-63 0 -108 50q-45 49 -45 120q0 73 42 126q40 52 105 52q36 0 59 -14q19 -11 65 -67l9 -11q22 40 61 67q37 25 80 25q69 0 109 -46t40 -129zM484 272q0 87 -54 87
q-34 0 -73 -77q62 -80 86 -80q41 0 41 70zM242 271l-15 20q-30 39 -41 48q-14 11 -26 11q-21 0 -31 -22q-12 -22 -12 -61q0 -29 18 -52q16 -22 34 -22q16 0 31 16q13 14 42 62z" />
    <glyph glyph-name="integral" unicode="&#x222b;" 
d="M514 607q0 -38 -21 -59t-55 -21q-20 0 -37 14q-16 13 -16 32q0 10 5 18t5 16q0 4 -11 4q-30 0 -30 -79v-558q0 -87 -37 -134q-37 -48 -106 -48q-51 0 -82 27q-32 27 -32 72q0 38 20 61q19 22 51 22q25 0 41 -13q16 -12 16 -32q0 -14 -7 -21q-5 -8 -5 -16q0 -9 10 -9
q14 0 20 14q5 15 5 65v558q0 85 38 134q38 48 106 48q53 0 88 -26q34 -27 34 -69z" />
    <glyph glyph-name="approxequal" unicode="&#x2248;" 
d="M588 519v-93q-89 -53 -166 -53q-41 0 -133 29q-82 25 -114 25q-58 0 -162 -62v91q91 53 169 53q47 0 134 -29q75 -24 112 -24q50 0 160 63zM588 340v-93q-89 -53 -166 -53q-41 0 -133 29q-83 25 -114 25q-55 0 -162 -62v91q89 53 169 53q47 0 134 -28q75 -25 112 -25
q50 0 160 63z" />
    <glyph glyph-name="notequal" unicode="&#x2260;" 
d="M481 702l-91 -224h161v-80h-194l-37 -90h231v-80h-263l-98 -241h-90l98 241h-149v80h181l36 90h-217v80h250l91 224h91z" />
    <glyph glyph-name="lessequal" unicode="&#x2264;" 
d="M493 190v-85l-405 213v71l405 211v-85l-313 -164zM493 80v-80h-405v80h405z" />
    <glyph glyph-name="greaterequal" unicode="&#x2265;" 
d="M512 389v-71l-405 -213v85l313 161l-313 164v85zM512 80v-80h-405v80h405z" />
    <glyph glyph-name="lozenge" unicode="&#x25ca;" 
d="M300 748l290 -374l-290 -374l-289 374zM300 158l165 215l-165 209l-165 -208z" />
    <glyph glyph-name="apple" 
d="M549 407q-39 -27 -54 -55t-15 -61q0 -27 8 -48q9 -21 25 -41q16 -19 52 -38q-14 -42 -44 -84q-33 -46 -54 -62q-23 -18 -46 -18q-13 0 -21 2q-9 2 -26 9l-25 10q-23 5 -36 5q-19 0 -44 -9l-27 -10q-19 -7 -35 -7q-37 0 -80 52q-18 22 -36 53q-16 28 -28 59
q-21 60 -21 121q0 78 45 130q45 53 121 53q26 0 52 -10q32 -16 48 -16q25 0 54 16q29 10 60 10q78 0 127 -61zM425 607q0 -13 1 -17q0 -30 -18 -61q-18 -32 -46 -51q-27 -18 -62 -18l-2 17q0 25 15 54q7 13 19 27q11 12 23 22q14 11 29 17q11 4 31 8z" />
    <glyph glyph-name="uni00AD" 
d="M460 393v-80h-330v80h330z" />
    <glyph glyph-name="uni03A9" 
d="M543 89v-89h-226v85q101 41 101 270q0 146 -28 201q-29 56 -91 56q-63 0 -91 -55t-28 -202q0 -231 107 -270v-85h-232v89h87q-35 48 -59 122q-23 72 -23 144q0 169 61 258q62 89 178 89t178 -89q61 -89 61 -258q0 -75 -22 -144q-23 -71 -60 -122h87z" />
    <glyph glyph-name="uni03BC" 
d="M202 -7v-201h-117v723h114v-302q0 -75 15 -104t56 -29q60 0 137 75v360h114v-515h-112v52q-85 -65 -162 -65q-30 0 -45 6z" />
  </font>
</defs>
</svg>
